<?xml version="1.0" standalone="no"?>
<!DOCTYPE svg PUBLIC "-//W3C//DTD SVG 20010904//EN"
 "http://www.w3.org/TR/2001/REC-SVG-20010904/DTD/svg10.dtd">
<svg version="1.0" xmlns="http://www.w3.org/2000/svg"
 width="99pt" height="99pt" viewBox="0 0 99 99">

<g transform="matrix(0.1,0,0,-0.1,0,99)"
fill="#000000" stroke="none">
<path transform="matrix(1.3,0,0,1.3,-66.7,-202.9)" d="M 117.5 855 c -24 -24 -34 -43 -34 -65 c 0 -68 53 -121 121 -121 c 22 0 41 10 65 34 c 29 29 34 41 34 79 c 0 65 -42 107 -107 107 c -38 0 -50 -5 -79 -34 z"/>
<path transform="matrix(1.3,0,0,1.3,-206.7,-204.5)" d="M 735.7 870.3 c -62 -38 -70 -114 -18 -166 c 29 -29 41 -34 79 -34 c 37 0 51 5 76 31 c 26 25 31 39 31 76 c 0 38 -5 50 -34 79 c -40 40 -83 45 -134 14 z"/>
<path transform="matrix(1.3,0,0,1.3,-139,-205.8)" d="M 398.4 791.3 l 4 -50 l 94 0 l 94 0 l 0 28 c 0 15 3 37 6 50 c 6 22 5 22 -97 22 l -104 0 l 3 -50 z"/>
<path transform="matrix(1.3,0,0,1.3,-102.2,-130.3)" d="M 284.4 588.9 l -41 -21 l 55 -111 c 30 -60 56 -111 58 -113 c 2 -2 63 30 83 44 c 4 2 -107 225 -111 223 c -1 0 -21 -10 -44 -22 z"/>
<path transform="matrix(1.3,0,0,1.3,-174.6,-129.5)" d="M 604.4 501.3 c -31 -59 -56 -110 -56 -113 c 0 -5 83 -48 85 -44 c 15 23 116 219 113 220 c -1 1 -22 11 -44 23 l -41 21 l -57 -107 z"/>
<path transform="matrix(1.3,0,0,1.3,-131.9,-62.6)" d="M 415.8 262.6 c -76 -63 -31 -194 66 -194 c 66 0 116 48 116 110 c 0 94 -110 145 -182 84 z"/>
</g>
</svg>
